<svg xmlns="http://www.w3.org/2000/svg" xmlns:xlink="http://www.w3.org/1999/xlink" width="500" zoomAndPan="magnify" viewBox="0 0 375 374.999991" height="500" preserveAspectRatio="xMidYMid meet" version="1.0"><defs><g/><clipPath id="d54d7aa542"><path d="M 43.125 141.542969 L 124.125 141.542969 L 124.125 233.792969 L 43.125 233.792969 Z M 43.125 141.542969 " clip-rule="nonzero"/></clipPath></defs><rect x="-37.5" width="450" fill="#ffffff" y="-37.499999" height="449.999989" fill-opacity="1"/><rect x="-37.5" width="450" fill="#0f0147" y="-37.499999" height="449.999989" fill-opacity="1"/><g clip-path="url(#d54d7aa542)"><path fill="#ff3131" d="M 45.261719 232.644531 C 44.355469 233.453125 42.804688 232.882812 42.804688 231.738281 L 42.804688 143.253906 C 42.804688 142.480469 43.519531 141.96875 44.265625 141.972656 C 44.613281 141.972656 44.972656 142.089844 45.261719 142.347656 L 62.300781 157.527344 L 82.433594 175.460938 C 82.453125 175.476562 82.46875 175.492188 82.488281 175.503906 L 82.488281 175.507812 L 82.839844 175.824219 L 103.96875 194.640625 C 104.046875 194.714844 104.136719 194.773438 104.222656 194.824219 C 105.050781 195.292969 106.175781 194.875 106.386719 194.027344 C 106.410156 193.933594 106.421875 193.835938 106.421875 193.734375 L 106.421875 181.257812 C 106.421875 180.117188 104.875 179.542969 103.96875 180.351562 L 103.066406 181.15625 L 101.210938 182.808594 L 88.765625 171.632812 L 90.570312 170.023438 L 121.640625 142.347656 C 122.546875 141.542969 124.097656 142.113281 124.097656 143.253906 L 124.097656 231.738281 C 124.097656 232.515625 123.378906 233.027344 122.636719 233.023438 C 122.285156 233.019531 121.929688 232.902344 121.640625 232.644531 L 104.597656 217.464844 L 84.46875 199.535156 C 84.449219 199.519531 84.433594 199.503906 84.414062 199.488281 L 84.0625 199.171875 L 62.933594 180.351562 C 62.851562 180.28125 62.765625 180.21875 62.675781 180.167969 C 61.851562 179.703125 60.726562 180.117188 60.511719 180.96875 C 60.488281 181.058594 60.476562 181.15625 60.476562 181.257812 L 60.476562 193.734375 C 60.476562 194.878906 62.027344 195.449219 62.933594 194.640625 L 63.835938 193.839844 L 65.6875 192.1875 L 78.136719 203.363281 L 76.332031 204.96875 L 45.261719 232.644531 " fill-opacity="1" fill-rule="nonzero"/></g><g fill="#ffffff" fill-opacity="1"><g transform="translate(142.120366, 190.066676)"><g><path d="M 18.875 0 L 9.515625 -15.453125 L 9.3125 -15.453125 L 9.3125 0 L 2.796875 0 L 2.796875 -27.046875 L 9.828125 -27.046875 L 18.515625 -13.015625 L 18.71875 -13.015625 L 18.71875 -27.046875 L 25.28125 -27.046875 L 25.28125 0 Z M 18.875 0 "/></g></g></g><g fill="#ffffff" fill-opacity="1"><g transform="translate(171.371013, 190.066676)"><g><path d="M 2.875 0 L 2.875 -27.046875 L 22.046875 -27.046875 L 22.046875 -21.5 L 9.703125 -21.5 L 9.703125 -16.4375 L 20.171875 -16.4375 L 20.171875 -10.890625 L 9.703125 -10.890625 L 9.703125 -5.546875 L 22.046875 -5.546875 L 22.046875 0 Z M 2.875 0 "/></g></g></g><g fill="#ffffff" fill-opacity="1"><g transform="translate(196.729458, 190.066676)"><g><path d="M 2.875 -27.046875 L 15.71875 -27.046875 C 18.132812 -27.046875 19.957031 -26.691406 21.1875 -25.984375 C 22.414062 -25.273438 23.234375 -24.28125 23.640625 -23 C 24.046875 -21.71875 24.25 -20 24.25 -17.84375 C 24.25 -15.832031 24.054688 -14.179688 23.671875 -12.890625 C 23.296875 -11.609375 22.484375 -10.585938 21.234375 -9.828125 C 19.992188 -9.066406 18.15625 -8.6875 15.71875 -8.6875 L 9.703125 -8.6875 L 9.703125 0 L 2.875 0 Z M 12.890625 -14.15625 C 14.285156 -14.15625 15.28125 -14.238281 15.875 -14.40625 C 16.476562 -14.570312 16.875 -14.898438 17.0625 -15.390625 C 17.25 -15.878906 17.34375 -16.695312 17.34375 -17.84375 C 17.34375 -19 17.25 -19.816406 17.0625 -20.296875 C 16.875 -20.785156 16.484375 -21.113281 15.890625 -21.28125 C 15.304688 -21.457031 14.304688 -21.546875 12.890625 -21.546875 L 9.703125 -21.546875 L 9.703125 -14.15625 Z M 12.890625 -14.15625 "/></g></g></g><g fill="#ffffff" fill-opacity="1"><g transform="translate(223.463943, 190.066676)"><g/></g></g><g fill="#ffffff" fill-opacity="1"><g transform="translate(234.551032, 190.066676)"><g><path d="M 20.875 -0.359375 C 19.976562 -0.171875 18.851562 -0.015625 17.5 0.109375 C 16.15625 0.242188 14.894531 0.3125 13.71875 0.3125 C 10.3125 0.3125 7.796875 -0.101562 6.171875 -0.9375 C 4.546875 -1.78125 3.46875 -3.144531 2.9375 -5.03125 C 2.414062 -6.914062 2.15625 -9.75 2.15625 -13.53125 C 2.15625 -17.25 2.425781 -20.050781 2.96875 -21.9375 C 3.507812 -23.820312 4.59375 -25.195312 6.21875 -26.0625 C 7.84375 -26.925781 10.34375 -27.359375 13.71875 -27.359375 C 14.894531 -27.359375 16.140625 -27.285156 17.453125 -27.140625 C 18.765625 -26.992188 19.851562 -26.816406 20.71875 -26.609375 L 20.71875 -21.421875 C 18.039062 -21.679688 16.269531 -21.8125 15.40625 -21.8125 C 13.257812 -21.8125 11.78125 -21.644531 10.96875 -21.3125 C 10.15625 -20.988281 9.632812 -20.3125 9.40625 -19.28125 C 9.1875 -18.25 9.078125 -16.332031 9.078125 -13.53125 C 9.078125 -10.71875 9.1875 -8.796875 9.40625 -7.765625 C 9.632812 -6.734375 10.15625 -6.050781 10.96875 -5.71875 C 11.78125 -5.394531 13.257812 -5.234375 15.40625 -5.234375 C 17.34375 -5.234375 19.164062 -5.363281 20.875 -5.625 Z M 20.875 -0.359375 "/></g></g></g><g fill="#ffffff" fill-opacity="1"><g transform="translate(258.297565, 190.066676)"><g><path d="M 13.921875 0.3125 C 10.117188 0.3125 7.410156 -0.0820312 5.796875 -0.875 C 4.179688 -1.675781 3.171875 -2.953125 2.765625 -4.703125 C 2.359375 -6.460938 2.15625 -9.40625 2.15625 -13.53125 C 2.15625 -17.644531 2.359375 -20.578125 2.765625 -22.328125 C 3.171875 -24.085938 4.179688 -25.363281 5.796875 -26.15625 C 7.410156 -26.957031 10.117188 -27.359375 13.921875 -27.359375 C 17.710938 -27.359375 20.414062 -26.957031 22.03125 -26.15625 C 23.644531 -25.363281 24.644531 -24.085938 25.03125 -22.328125 C 25.425781 -20.578125 25.625 -17.644531 25.625 -13.53125 C 25.625 -9.40625 25.425781 -6.460938 25.03125 -4.703125 C 24.644531 -2.953125 23.644531 -1.675781 22.03125 -0.875 C 20.414062 -0.0820312 17.710938 0.3125 13.921875 0.3125 Z M 13.921875 -5.234375 C 15.617188 -5.234375 16.753906 -5.367188 17.328125 -5.640625 C 17.910156 -5.910156 18.28125 -6.546875 18.4375 -7.546875 C 18.59375 -8.546875 18.671875 -10.539062 18.671875 -13.53125 C 18.671875 -16.507812 18.59375 -18.5 18.4375 -19.5 C 18.28125 -20.5 17.910156 -21.132812 17.328125 -21.40625 C 16.753906 -21.675781 15.617188 -21.8125 13.921875 -21.8125 C 12.210938 -21.8125 11.054688 -21.675781 10.453125 -21.40625 C 9.847656 -21.132812 9.46875 -20.484375 9.3125 -19.453125 C 9.15625 -18.429688 9.078125 -16.457031 9.078125 -13.53125 C 9.078125 -10.59375 9.15625 -8.609375 9.3125 -7.578125 C 9.46875 -6.554688 9.847656 -5.910156 10.453125 -5.640625 C 11.054688 -5.367188 12.210938 -5.234375 13.921875 -5.234375 Z M 13.921875 -5.234375 "/></g></g></g><g fill="#ffffff" fill-opacity="1"><g transform="translate(287.273004, 190.066676)"><g><path d="M 2.875 -27.046875 L 12.421875 -27.046875 C 16.398438 -27.046875 19.242188 -26.644531 20.953125 -25.84375 C 22.660156 -25.050781 23.722656 -23.796875 24.140625 -22.078125 C 24.554688 -20.359375 24.765625 -17.507812 24.765625 -13.53125 C 24.765625 -9.539062 24.554688 -6.6875 24.140625 -4.96875 C 23.722656 -3.25 22.660156 -1.988281 20.953125 -1.1875 C 19.242188 -0.394531 16.398438 0 12.421875 0 L 2.875 0 Z M 12.265625 -5.546875 C 14.285156 -5.546875 15.628906 -5.671875 16.296875 -5.921875 C 16.960938 -6.171875 17.378906 -6.769531 17.546875 -7.71875 C 17.722656 -8.675781 17.8125 -10.613281 17.8125 -13.53125 C 17.8125 -16.40625 17.71875 -18.328125 17.53125 -19.296875 C 17.351562 -20.265625 16.925781 -20.875 16.25 -21.125 C 15.582031 -21.375 14.253906 -21.5 12.265625 -21.5 L 9.671875 -21.5 L 9.671875 -5.546875 Z M 12.265625 -5.546875 "/></g></g></g><g fill="#ffffff" fill-opacity="1"><g transform="translate(315.38351, 190.066676)"><g><path d="M 2.875 0 L 2.875 -27.046875 L 22.046875 -27.046875 L 22.046875 -21.5 L 9.703125 -21.5 L 9.703125 -16.4375 L 20.171875 -16.4375 L 20.171875 -10.890625 L 9.703125 -10.890625 L 9.703125 -5.546875 L 22.046875 -5.546875 L 22.046875 0 Z M 2.875 0 "/></g></g></g><g fill="#ff3131" fill-opacity="1"><g transform="translate(142.120366, 217.271587)"><g><path d="M 1.546875 -11.46875 L 3.671875 -11.46875 L 3.671875 -1.796875 L 9.65625 -1.796875 L 9.65625 0 L 1.546875 0 Z M 1.546875 -11.46875 "/></g></g></g><g fill="#ff3131" fill-opacity="1"><g transform="translate(155.203599, 217.271587)"><g><path d="M 10.140625 -1.78125 L 10.140625 0 L 1.546875 0 L 1.546875 -11.46875 L 9.90625 -11.46875 L 9.90625 -9.671875 L 3.671875 -9.671875 L 3.671875 -6.703125 L 9.203125 -6.703125 L 9.203125 -4.9375 L 3.671875 -4.9375 L 3.671875 -1.78125 Z M 10.140625 -1.78125 "/></g></g></g><g fill="#ff3131" fill-opacity="1"><g transform="translate(169.449187, 217.271587)"><g><path d="M 8.96875 -2.65625 L 3.25 -2.65625 L 2.109375 0 L -0.078125 0 L 5.078125 -11.46875 L 7.171875 -11.46875 L 12.34375 0 L 10.125 0 Z M 8.265625 -4.328125 L 6.109375 -9.328125 L 3.96875 -4.328125 Z M 8.265625 -4.328125 "/></g></g></g><g fill="#ff3131" fill-opacity="1"><g transform="translate(184.988094, 217.271587)"><g><path d="M 9.03125 0 L 6.703125 -3.359375 C 6.597656 -3.347656 6.445312 -3.34375 6.25 -3.34375 L 3.671875 -3.34375 L 3.671875 0 L 1.546875 0 L 1.546875 -11.46875 L 6.25 -11.46875 C 7.25 -11.46875 8.113281 -11.300781 8.84375 -10.96875 C 9.582031 -10.644531 10.148438 -10.175781 10.546875 -9.5625 C 10.941406 -8.945312 11.140625 -8.222656 11.140625 -7.390625 C 11.140625 -6.523438 10.925781 -5.78125 10.5 -5.15625 C 10.082031 -4.53125 9.476562 -4.066406 8.6875 -3.765625 L 11.328125 0 Z M 8.984375 -7.390625 C 8.984375 -8.117188 8.742188 -8.675781 8.265625 -9.0625 C 7.785156 -9.457031 7.082031 -9.65625 6.15625 -9.65625 L 3.671875 -9.65625 L 3.671875 -5.09375 L 6.15625 -5.09375 C 7.082031 -5.09375 7.785156 -5.289062 8.265625 -5.6875 C 8.742188 -6.082031 8.984375 -6.648438 8.984375 -7.390625 Z M 8.984375 -7.390625 "/></g></g></g><g fill="#ff3131" fill-opacity="1"><g transform="translate(200.232316, 217.271587)"><g><path d="M 11.71875 -11.46875 L 11.71875 0 L 9.96875 0 L 3.65625 -7.765625 L 3.65625 0 L 1.546875 0 L 1.546875 -11.46875 L 3.296875 -11.46875 L 9.609375 -3.703125 L 9.609375 -11.46875 Z M 11.71875 -11.46875 "/></g></g></g><g fill="#ff3131" fill-opacity="1"><g transform="translate(216.769856, 217.271587)"><g/></g></g><g fill="#ff3131" fill-opacity="1"><g transform="translate(224.565222, 217.271587)"><g><path d="M 3.859375 -9.65625 L 0.0625 -9.65625 L 0.0625 -11.46875 L 9.796875 -11.46875 L 9.796875 -9.65625 L 6 -9.65625 L 6 0 L 3.859375 0 Z M 3.859375 -9.65625 "/></g></g></g><g fill="#ff3131" fill-opacity="1"><g transform="translate(237.697574, 217.271587)"><g><path d="M 6.890625 0.15625 C 5.722656 0.15625 4.671875 -0.09375 3.734375 -0.59375 C 2.796875 -1.101562 2.054688 -1.804688 1.515625 -2.703125 C 0.984375 -3.609375 0.71875 -4.617188 0.71875 -5.734375 C 0.71875 -6.847656 0.984375 -7.851562 1.515625 -8.75 C 2.054688 -9.65625 2.796875 -10.359375 3.734375 -10.859375 C 4.671875 -11.367188 5.722656 -11.625 6.890625 -11.625 C 8.054688 -11.625 9.109375 -11.367188 10.046875 -10.859375 C 10.992188 -10.359375 11.734375 -9.660156 12.265625 -8.765625 C 12.796875 -7.867188 13.0625 -6.859375 13.0625 -5.734375 C 13.0625 -4.609375 12.796875 -3.597656 12.265625 -2.703125 C 11.734375 -1.804688 10.992188 -1.101562 10.046875 -0.59375 C 9.109375 -0.09375 8.054688 0.15625 6.890625 0.15625 Z M 6.890625 -1.703125 C 7.660156 -1.703125 8.347656 -1.875 8.953125 -2.21875 C 9.566406 -2.5625 10.046875 -3.039062 10.390625 -3.65625 C 10.742188 -4.269531 10.921875 -4.960938 10.921875 -5.734375 C 10.921875 -6.492188 10.742188 -7.179688 10.390625 -7.796875 C 10.046875 -8.421875 9.566406 -8.90625 8.953125 -9.25 C 8.347656 -9.59375 7.660156 -9.765625 6.890625 -9.765625 C 6.128906 -9.765625 5.441406 -9.59375 4.828125 -9.25 C 4.210938 -8.90625 3.726562 -8.421875 3.375 -7.796875 C 3.03125 -7.179688 2.859375 -6.492188 2.859375 -5.734375 C 2.859375 -4.960938 3.03125 -4.269531 3.375 -3.65625 C 3.726562 -3.039062 4.210938 -2.5625 4.828125 -2.21875 C 5.441406 -1.875 6.128906 -1.703125 6.890625 -1.703125 Z M 6.890625 -1.703125 "/></g></g></g><g fill="#ff3131" fill-opacity="1"><g transform="translate(254.758992, 217.271587)"><g/></g></g><g fill="#ff3131" fill-opacity="1"><g transform="translate(262.554363, 217.271587)"><g><path d="M 6.84375 0.15625 C 5.6875 0.15625 4.640625 -0.09375 3.703125 -0.59375 C 2.773438 -1.101562 2.046875 -1.804688 1.515625 -2.703125 C 0.984375 -3.597656 0.71875 -4.609375 0.71875 -5.734375 C 0.71875 -6.859375 0.984375 -7.867188 1.515625 -8.765625 C 2.054688 -9.660156 2.789062 -10.359375 3.71875 -10.859375 C 4.65625 -11.367188 5.703125 -11.625 6.859375 -11.625 C 7.796875 -11.625 8.648438 -11.457031 9.421875 -11.125 C 10.203125 -10.800781 10.859375 -10.328125 11.390625 -9.703125 L 10.015625 -8.421875 C 9.191406 -9.316406 8.171875 -9.765625 6.953125 -9.765625 C 6.171875 -9.765625 5.46875 -9.59375 4.84375 -9.25 C 4.21875 -8.90625 3.726562 -8.425781 3.375 -7.8125 C 3.03125 -7.195312 2.859375 -6.503906 2.859375 -5.734375 C 2.859375 -4.953125 3.03125 -4.253906 3.375 -3.640625 C 3.726562 -3.035156 4.21875 -2.5625 4.84375 -2.21875 C 5.46875 -1.875 6.171875 -1.703125 6.953125 -1.703125 C 8.171875 -1.703125 9.191406 -2.15625 10.015625 -3.0625 L 11.390625 -1.75 C 10.859375 -1.125 10.203125 -0.648438 9.421875 -0.328125 C 8.640625 -0.00390625 7.78125 0.15625 6.84375 0.15625 Z M 6.84375 0.15625 "/></g></g></g><g fill="#ff3131" fill-opacity="1"><g transform="translate(277.733096, 217.271587)"><g><path d="M 6.890625 0.15625 C 5.722656 0.15625 4.671875 -0.09375 3.734375 -0.59375 C 2.796875 -1.101562 2.054688 -1.804688 1.515625 -2.703125 C 0.984375 -3.609375 0.71875 -4.617188 0.71875 -5.734375 C 0.71875 -6.847656 0.984375 -7.851562 1.515625 -8.75 C 2.054688 -9.65625 2.796875 -10.359375 3.734375 -10.859375 C 4.671875 -11.367188 5.722656 -11.625 6.890625 -11.625 C 8.054688 -11.625 9.109375 -11.367188 10.046875 -10.859375 C 10.992188 -10.359375 11.734375 -9.660156 12.265625 -8.765625 C 12.796875 -7.867188 13.0625 -6.859375 13.0625 -5.734375 C 13.0625 -4.609375 12.796875 -3.597656 12.265625 -2.703125 C 11.734375 -1.804688 10.992188 -1.101562 10.046875 -0.59375 C 9.109375 -0.09375 8.054688 0.15625 6.890625 0.15625 Z M 6.890625 -1.703125 C 7.660156 -1.703125 8.347656 -1.875 8.953125 -2.21875 C 9.566406 -2.5625 10.046875 -3.039062 10.390625 -3.65625 C 10.742188 -4.269531 10.921875 -4.960938 10.921875 -5.734375 C 10.921875 -6.492188 10.742188 -7.179688 10.390625 -7.796875 C 10.046875 -8.421875 9.566406 -8.90625 8.953125 -9.25 C 8.347656 -9.59375 7.660156 -9.765625 6.890625 -9.765625 C 6.128906 -9.765625 5.441406 -9.59375 4.828125 -9.25 C 4.210938 -8.90625 3.726562 -8.421875 3.375 -7.796875 C 3.03125 -7.179688 2.859375 -6.492188 2.859375 -5.734375 C 2.859375 -4.960938 3.03125 -4.269531 3.375 -3.65625 C 3.726562 -3.039062 4.210938 -2.5625 4.828125 -2.21875 C 5.441406 -1.875 6.128906 -1.703125 6.890625 -1.703125 Z M 6.890625 -1.703125 "/></g></g></g><g fill="#ff3131" fill-opacity="1"><g transform="translate(294.79452, 217.271587)"><g><path d="M 1.546875 -11.46875 L 6.546875 -11.46875 C 7.773438 -11.46875 8.863281 -11.226562 9.8125 -10.75 C 10.757812 -10.269531 11.492188 -9.597656 12.015625 -8.734375 C 12.546875 -7.867188 12.8125 -6.867188 12.8125 -5.734375 C 12.8125 -4.597656 12.546875 -3.59375 12.015625 -2.71875 C 11.492188 -1.851562 10.757812 -1.179688 9.8125 -0.703125 C 8.863281 -0.234375 7.773438 0 6.546875 0 L 1.546875 0 Z M 6.453125 -1.796875 C 7.296875 -1.796875 8.035156 -1.957031 8.671875 -2.28125 C 9.304688 -2.601562 9.796875 -3.0625 10.140625 -3.65625 C 10.484375 -4.25 10.65625 -4.941406 10.65625 -5.734375 C 10.65625 -6.515625 10.484375 -7.203125 10.140625 -7.796875 C 9.796875 -8.390625 9.304688 -8.847656 8.671875 -9.171875 C 8.035156 -9.492188 7.296875 -9.65625 6.453125 -9.65625 L 3.671875 -9.65625 L 3.671875 -1.796875 Z M 6.453125 -1.796875 "/></g></g></g><g fill="#ff3131" fill-opacity="1"><g transform="translate(311.594011, 217.271587)"><g><path d="M 10.140625 -1.78125 L 10.140625 0 L 1.546875 0 L 1.546875 -11.46875 L 9.90625 -11.46875 L 9.90625 -9.671875 L 3.671875 -9.671875 L 3.671875 -6.703125 L 9.203125 -6.703125 L 9.203125 -4.9375 L 3.671875 -4.9375 L 3.671875 -1.78125 Z M 10.140625 -1.78125 "/></g></g></g></svg>